<svg xmlns="http://www.w3.org/2000/svg" viewBox="0 0 220 340" width="100%" height="100%">
  <defs>

    <!-- Mosaic Pattern -->
    <pattern id="mosaicPattern"
      width="220"
      height="340"
      patternUnits="userSpaceOnUse">
      
      <g stroke="#020617" stroke-width="4" stroke-linejoin="round">
        <!-- Row 1 -->
        <polygon points="-5,-5 60,-5 55,45 -5,55" fill="#00bcd4"/>
        <polygon points="60,-5 110,-5 100,50 55,45" fill="#8b5cf6"/>
        <polygon points="110,-5 160,-5 150,55 100,50" fill="#f43f5e"/>
        <polygon points="160,-5 225,-5 225,65 150,55" fill="#10b981"/>

        <!-- Row 2 -->
        <polygon points="-5,55 55,45 60,115 -5,120" fill="#3b82f6"/>
        <polygon points="55,45 100,50 115,120 60,115" fill="#f59e0b"/>
        <polygon points="100,50 150,55 160,115 115,120" fill="#8b5cf6"/>
        <polygon points="150,55 225,65 225,125 160,115" fill="#3b82f6"/>

        <!-- Row 3 -->
        <polygon points="-5,120 60,115 55,185 -5,180" fill="#f43f5e"/>
        <polygon points="60,115 115,120 125,175 55,185" fill="#00bcd4"/>
        <polygon points="115,120 160,115 170,185 125,175" fill="#f59e0b"/>
        <polygon points="160,115 225,125 225,195 170,185" fill="#3b82f6"/>

        <!-- Row 4 -->
        <polygon points="-5,180 55,185 65,245 -5,240" fill="#10b981"/>
        <polygon points="55,185 125,175 140,235 65,245" fill="#f43f5e"/>
        <polygon points="125,175 170,185 190,250 140,235" fill="#00bcd4"/>
        <polygon points="170,185 225,195 225,255 190,250" fill="#8b5cf6"/>

        <!-- Row 5 -->
        <polygon points="-5,240 65,245 55,315 -5,310" fill="#8b5cf6"/>
        <polygon points="65,245 140,235 130,320 55,315" fill="#3b82f6"/>
        <polygon points="140,235 190,250 200,315 130,320" fill="#10b981"/>
        <polygon points="190,250 225,255 225,325 200,315" fill="#f43f5e"/>

        <!-- Row 6 -->
        <polygon points="-5,310 55,315 60,360 -5,360" fill="#00bcd4"/>
        <polygon points="55,315 130,320 120,360 60,360" fill="#f59e0b"/>
        <polygon points="130,320 200,315 210,360 120,360" fill="#8b5cf6"/>
        <polygon points="200,315 225,325 225,360 210,360" fill="#3b82f6"/>
      </g>
    </pattern>

    <filter id="glow" x="-30%" y="-30%" width="160%" height="160%">
      <feDropShadow dx="0" dy="5" stdDeviation="6"
          flood-color="#000000"
          flood-opacity=".15"/>
    </filter>

  </defs>

  <style>
    .letter{
      transform-origin:110px 170px;
      animation:stretch 4s ease-in-out infinite;
    }

    .rShape{
      animation:rMorph 4s ease-in-out infinite;
    }

    /* Clean Loop: Normal -> Vertical Stretch -> Normal -> Horizontal Stretch -> Normal */
    @keyframes stretch{
      0%, 50%, 100% {
        transform: scale(1, 1);
      }
      25% {
        transform: scale(0.85, 1.21); /* Vertical stretch */
      }
      75% {
        transform: scale(1.25, 0.85); /* Horizontal stretch */
      }
    }

    /* Path morphing aligned with timing */
    @keyframes rMorph{
      0%, 50%, 100%{
        /* Normal State */
        d:path("
M50 40
L115 40
C165 40 185 60 185 105
C185 150 160 170 118 175
L185 300
L145 300
L98 190
L90 190
L90 300
L50 300
Z
M90 75
L112 75
C135 75 148 85 148 106
C148 128 135 138 112 138
L90 138
Z");
      }
      25%{
        /* Vertical Stretch Path */
        d:path("
M58 25
L102 25
C142 25 158 75 158 125
C158 178 132 200 88 215
L172 330
L142 330
L88 225
L72 225
L72 330
L58 330
Z
M72 90
L90 90
C108 90 118 100 118 120
C118 142 108 155 90 155
L72 155
Z");
      }
      75%{
        /* Horizontal Stretch Path */
        d:path("
M40 45
L125 45
C180 45 200 62 200 108
C200 155 172 172 125 178
L198 295
L152 295
L100 185
L85 185
L85 295
L40 295
Z
M85 80
L118 80
C142 80 155 88 155 108
C155 130 142 140 118 140
L85 140
Z");
      }
    }
  </style>

  <g class="letter" filter="url(#glow)">
    <path
      class="rShape"
      fill="url(#mosaicPattern)"
      fill-rule="evenodd"
      stroke="#020617"
      stroke-width="5"
      stroke-linejoin="round"
      d="
M50 40
L115 40
C165 40 185 60 185 105
C185 150 160 170 118 175
L185 300
L145 300
L98 190
L90 190
L90 300
L50 300
Z

M90 75
L112 75
C135 75 148 85 148 106
C148 128 135 138 112 138
L90 138
Z"/>
  </g>

</svg>
